<mxfile host="app.diagrams.net" agent="Mozilla/5.0 (Windows NT 10.0; Win64; x64; rv:134.0) Gecko/20100101 Firefox/134.0" version="26.0.5">
  <diagram name="Page-1" id="zIDKdJkZR7gG3NfZ2AKr">
    <mxGraphModel dx="2060" dy="1091" grid="1" gridSize="10" guides="1" tooltips="1" connect="1" arrows="1" fold="1" page="1" pageScale="1" pageWidth="850" pageHeight="1100" math="0" shadow="0">
      <root>
        <mxCell id="0" />
        <mxCell id="1" parent="0" />
        <mxCell id="hCucOo2nUfCs66jP8MKl-1" value="" style="rounded=0;whiteSpace=wrap;html=1;strokeWidth=0;" vertex="1" parent="1">
          <mxGeometry x="120" y="70" width="850" height="750" as="geometry" />
        </mxCell>
        <mxCell id="hCucOo2nUfCs66jP8MKl-4" value="" style="rounded=1;whiteSpace=wrap;html=1;fillColor=#7EA6E0;" vertex="1" parent="1">
          <mxGeometry x="467.5" y="100" width="75" height="70" as="geometry" />
        </mxCell>
        <mxCell id="hCucOo2nUfCs66jP8MKl-5" value="" style="shape=image;html=1;verticalAlign=top;verticalLabelPosition=bottom;labelBackgroundColor=#ffffff;imageAspect=0;aspect=fixed;image=https://cdn4.iconfinder.com/data/icons/social-media-and-logos-11/32/Logo_telegram_Airplane_Air_plane_paper_airplane-33-128.png" vertex="1" parent="1">
          <mxGeometry x="475" y="105" width="60" height="60" as="geometry" />
        </mxCell>
        <mxCell id="hCucOo2nUfCs66jP8MKl-6" value="&lt;b&gt;&lt;font style=&quot;font-size: 18px;&quot;&gt;Airport Gate Management System&lt;/font&gt;&lt;/b&gt;" style="text;strokeColor=none;align=center;fillColor=none;html=1;verticalAlign=middle;whiteSpace=wrap;rounded=0;" vertex="1" parent="1">
          <mxGeometry x="350" y="200" width="310" height="30" as="geometry" />
        </mxCell>
        <mxCell id="hCucOo2nUfCs66jP8MKl-7" value="&lt;font style=&quot;font-size: 14px;&quot;&gt;Username&lt;/font&gt;" style="text;strokeColor=none;align=center;fillColor=none;html=1;verticalAlign=middle;whiteSpace=wrap;rounded=0;" vertex="1" parent="1">
          <mxGeometry x="360" y="345" width="100" height="30" as="geometry" />
        </mxCell>
        <mxCell id="hCucOo2nUfCs66jP8MKl-8" value="&lt;font style=&quot;font-size: 15px;&quot;&gt;Secure access to operational controls&lt;br&gt;&lt;/font&gt;" style="text;strokeColor=none;align=center;fillColor=none;html=1;verticalAlign=middle;whiteSpace=wrap;rounded=0;" vertex="1" parent="1">
          <mxGeometry x="360" y="240" width="310" height="30" as="geometry" />
        </mxCell>
        <mxCell id="hCucOo2nUfCs66jP8MKl-10" value="" style="rounded=1;whiteSpace=wrap;html=1;strokeWidth=0;" vertex="1" parent="1">
          <mxGeometry x="370" y="375" width="290" height="40" as="geometry" />
        </mxCell>
        <mxCell id="hCucOo2nUfCs66jP8MKl-9" value="" style="shape=actor;whiteSpace=wrap;html=1;strokeWidth=0;" vertex="1" parent="1">
          <mxGeometry x="380" y="380" width="20" height="30" as="geometry" />
        </mxCell>
        <mxCell id="hCucOo2nUfCs66jP8MKl-11" value="&lt;font style=&quot;font-size: 15px; color: rgb(230, 230, 230);&quot;&gt;Enter your username&lt;/font&gt;" style="text;strokeColor=none;align=center;fillColor=none;html=1;verticalAlign=middle;whiteSpace=wrap;rounded=0;strokeWidth=0;" vertex="1" parent="1">
          <mxGeometry x="420" y="380" width="140" height="30" as="geometry" />
        </mxCell>
        <mxCell id="hCucOo2nUfCs66jP8MKl-12" value="" style="rounded=1;whiteSpace=wrap;html=1;strokeWidth=0;" vertex="1" parent="1">
          <mxGeometry x="370" y="450" width="290" height="40" as="geometry" />
        </mxCell>
        <mxCell id="hCucOo2nUfCs66jP8MKl-14" value="&lt;font style=&quot;font-size: 15px; color: rgb(230, 230, 230);&quot;&gt;Enter your password&lt;br&gt;&lt;/font&gt;" style="text;strokeColor=none;align=center;fillColor=none;html=1;verticalAlign=middle;whiteSpace=wrap;rounded=0;strokeWidth=0;" vertex="1" parent="1">
          <mxGeometry x="420" y="455" width="140" height="30" as="geometry" />
        </mxCell>
        <mxCell id="hCucOo2nUfCs66jP8MKl-15" value="" style="html=1;verticalLabelPosition=bottom;align=center;labelBackgroundColor=#ffffff;verticalAlign=top;strokeWidth=2;strokeColor=#E6E6E6;shadow=0;dashed=0;shape=mxgraph.ios7.icons.locked;" vertex="1" parent="1">
          <mxGeometry x="380" y="455" width="20" height="30" as="geometry" />
        </mxCell>
        <mxCell id="hCucOo2nUfCs66jP8MKl-16" value="Password" style="text;strokeColor=none;align=center;fillColor=none;html=1;verticalAlign=middle;whiteSpace=wrap;rounded=0;" vertex="1" parent="1">
          <mxGeometry x="360" y="425" width="100" height="30" as="geometry" />
        </mxCell>
        <mxCell id="hCucOo2nUfCs66jP8MKl-17" value="" style="html=1;verticalLabelPosition=bottom;align=center;labelBackgroundColor=#ffffff;verticalAlign=top;strokeWidth=2;strokeColor=#E6E6E6;shadow=0;dashed=0;shape=mxgraph.ios7.icons.eye;" vertex="1" parent="1">
          <mxGeometry x="620" y="462.95" width="30" height="14.1" as="geometry" />
        </mxCell>
        <mxCell id="hCucOo2nUfCs66jP8MKl-18" value="" style="whiteSpace=wrap;html=1;aspect=fixed;" vertex="1" parent="1">
          <mxGeometry x="375" y="520" width="15" height="15" as="geometry" />
        </mxCell>
        <mxCell id="hCucOo2nUfCs66jP8MKl-19" value="Remember me" style="text;strokeColor=none;align=center;fillColor=none;html=1;verticalAlign=middle;whiteSpace=wrap;rounded=0;" vertex="1" parent="1">
          <mxGeometry x="390" y="512.5" width="100" height="30" as="geometry" />
        </mxCell>
        <mxCell id="hCucOo2nUfCs66jP8MKl-20" value="&lt;span style=&quot;color: rgb(51, 51, 255);&quot;&gt;Forgot password?&lt;/span&gt;" style="text;strokeColor=none;align=center;fillColor=none;html=1;verticalAlign=middle;whiteSpace=wrap;rounded=0;" vertex="1" parent="1">
          <mxGeometry x="560" y="512.5" width="110" height="30" as="geometry" />
        </mxCell>
        <mxCell id="hCucOo2nUfCs66jP8MKl-21" value="&lt;font style=&quot;font-size: 23px;&quot;&gt;&lt;span style=&quot;color: rgb(255, 255, 255);&quot;&gt;Sign In&lt;/span&gt;&lt;/font&gt;" style="rounded=1;whiteSpace=wrap;html=1;strokeColor=#3333FF;fillColor=#3333FF;" vertex="1" parent="1">
          <mxGeometry x="360" y="590" width="320" height="40" as="geometry" />
        </mxCell>
      </root>
    </mxGraphModel>
  </diagram>
</mxfile>
